Once a mercenary of Queen Elizabeth I fighting Spainards in Africa, He met the Devil's Reaper and discovered he was bound for hell! Barely escaping he soon renounced violence to atone for his past sins, seeking out redemption in a life of peace. That is until the followers of priest turned sorcerer Malachi kidnap a Purtian girl Meredith Crowthorn and brutally slaughter her family before his very own eyes (including butchering her beloved younger brother Edward who Solomon had befriended)! Forcing Solomon to take up arms and return to his violent ways once more to rescue her! In doing so means returning to his birthplace and facing his older brother Marcus who (in his youth) he accidentally left disfigured (and for dead), who now serves as merciless enforcer to Malachi.
 
http://www.imdb.com/title/tt0970452/

Subtitles (srt) : Dutch, English.

Covers included.

Solomon Kane is een zwaardvechter en soldaat in de 16de eeuw die ontdekt dat hij door zijn brute en wrede daden gedoemd is. Hij is vastbesloten zichzelf weer in het reine te krijgen door vreedzaam te leven, maar het kwaad dwingt hem opnieuw de wapens op te nemen.
 
http://www.moviemeter.nl/film/47376

Ondertitels (srt) : Engels, Nederlands.

Hoesjes bijgevoegd.

General
Complete name                    : Solomon Kane-AC3-XviD-DVDRip[Eng]2009 2Lions-TeamSolomon Kane-AC3-XviD-DVDRip[Eng]2009.avi
Format                           : AVI
Format/Info                      : Audio Video Interleave
File size                        : 1.36 GiB
Duration                         : 1h 39mn
Overall bit rate                 : 1 955 Kbps
Writing application              : VirtualDubMod 1.5.4.1 (build 2178/release)
Writing library                  : VirtualDubMod build 2178/release

Video
ID                               : 0
Format                           : MPEG-4 Visual
Format profile                   : Simple@L3
Format settings, BVOP            : No
Format settings, QPel            : No
Format settings, GMC             : No warppoints
Format settings, Matrix          : Default (H.263)
Codec ID                         : XVID
Codec ID/Hint                    : XviD
Duration                         : 1h 39mn
Bit rate                         : 1 497 Kbps
Width                            : 720 pixels
Height                           : 304 pixels
Display aspect ratio             : 2.35:1
Frame rate                       : 25.000 fps
Resolution                       : 8 bits
Colorimetry                      : 4:2:0
Scan type                        : Progressive
Bits/(Pixel*Frame)               : 0.274
Stream size                      : 1.04 GiB (77%)
Writing library                  : XviD 1.1.2 (UTC 2006-11-01)

Audio
ID                               : 1
Format                           : AC-3
Format/Info                      : Audio Coding 3
Format_Settings_ModeExtension    : CM (complete main)
Codec ID                         : 2000
Duration                         : 1h 39mn
Bit rate mode                    : Constant
Bit rate                         : 448 Kbps
Channel(s)                       : 6 channels
Channel positions                : Front: L C R, Side: L R, LFE
Sampling rate                    : 48.0 KHz
Stream size                      : 320 MiB (23%)
Alignment                        : Split accross interleaves
Interleave, duration             : 40 ms (1.00 video frame)
Interleave, preload duration     : 500 ms

Brought to you by 
2Lions Team

meer zien??
Kom dan eens kijken op ons forum 
                    
http://www.2lions.ons-forum.nl

2Lions the site to be for all your Dutch MOVIES and more

******************************************

DON T HIT AND RUN Niet gelijk afhaken als de FILM binnen is blijf seeden. 

Don`t quit after you finished the download, but keep seeding

There are fake torrents from uploaders who use our team name.
Those are not ours, or members from our team.
We 2Lions-Team are not responsible for the fake posts on our name

Wij 2Lions-Team zijn niet verantwoordelijk voor die zieke FAKE posten die op onze naam worden gedaan

Please check our site !!!

to the fakers , get a life !!!